<?xml version="1.0" standalone="no"?>
<!DOCTYPE svg PUBLIC "-//W3C//DTD SVG 20010904//EN"
 "http://www.w3.org/TR/2001/REC-SVG-20010904/DTD/svg10.dtd">
<svg version="1.0" xmlns="http://www.w3.org/2000/svg"
 width="512.000000pt" height="512.000000pt" viewBox="0 0 512.000000 512.000000"
 preserveAspectRatio="xMidYMid meet">

<g transform="translate(0.000000,512.000000) scale(0.100000,-0.100000)"
fill="#000000" stroke="none">
<path d="M0 2560 l0 -2560 2560 0 2560 0 0 2560 0 2560 -2560 0 -2560 0 0
-2560z m2270 610 c0 -291 3 -530 8 -529 4 1 48 45 97 98 107 114 740 784 840
889 l70 73 289 -3 289 -3 -289 -310 c-159 -171 -370 -398 -468 -504 -207 -222
-197 -181 -81 -327 75 -96 89 -118 59 -94 -18 14 -18 14 -5 -2 7 -10 17 -16
21 -13 10 6 101 -110 93 -119 -12 -11 -22 -6 -17 8 3 8 -3 19 -16 26 -11 6
-18 15 -15 20 3 5 1 11 -4 14 -23 14 -19 -14 4 -32 22 -17 24 -24 15 -46 -5
-15 -22 -32 -37 -38 -16 -7 -41 -22 -58 -34 -16 -12 -40 -25 -52 -29 -13 -3
-26 -17 -29 -31 -7 -26 -19 -32 -27 -11 -3 8 -13 4 -30 -13 -38 -37 -55 -50
-65 -50 -5 0 -17 -10 -28 -21 -15 -17 -16 -23 -5 -27 11 -4 11 -6 0 -13 -12
-7 -11 -10 2 -21 8 -7 28 -31 43 -53 l28 -40 -31 35 c-88 98 -131 156 -123
165 4 5 2 5 -5 1 -14 -8 -45 33 -36 47 3 6 2 7 -4 4 -5 -3 -36 26 -68 65 l-59
71 -33 -39 -33 -39 -385 385 -385 385 -48 -3 c-59 -4 -98 22 -108 74 -16 89
62 146 149 109 16 -7 17 9 17 249 l0 256 260 0 260 0 0 -530z m-837 379 c24
-26 28 -38 24 -73 -4 -38 -1 -44 49 -96 l53 -55 -17 -133 -16 -132 255 -258
c141 -141 342 -345 447 -452 180 -184 190 -196 174 -213 -15 -17 -41 7 -476
442 l-459 459 17 132 18 132 -44 45 c-37 38 -47 43 -74 38 -68 -12 -124 32
-124 100 0 46 13 71 48 90 40 23 91 12 125 -26z m-85 -469 c39 -24 56 -62 47
-109 -6 -31 -2 -38 46 -87 l52 -53 -13 -107 -12 -107 401 -401 401 -401 -2
-150 -2 -150 -6 125 c-3 69 -7 110 -8 93 -1 -20 -7 -33 -15 -33 -8 0 -30 -16
-50 -35 -20 -19 -43 -35 -52 -35 -8 0 -15 -7 -15 -15 0 -8 -7 -15 -15 -15 -9
0 -18 -7 -21 -15 -4 -8 -12 -15 -18 -15 -24 0 -96 -41 -106 -60 -6 -11 -17
-20 -25 -20 -8 0 -15 -4 -15 -10 0 -5 -9 -10 -20 -10 -11 0 -20 -7 -20 -15 0
-19 -106 -22 -113 -2 -3 7 -6 5 -6 -5 -1 -16 17 -18 212 -21 l212 -2 -217 -3
-218 -2 0 418 c0 501 11 462 -129 444 -125 -17 -124 -17 -182 39 -45 43 -57
50 -83 46 -72 -11 -133 44 -123 110 12 72 83 111 145 79 41 -21 54 -48 51
-102 -3 -40 1 -48 41 -90 49 -49 39 -47 159 -27 l33 6 -126 126 -127 127 16
109 15 109 -42 44 c-38 38 -47 43 -77 38 -51 -8 -99 16 -117 60 -18 43 -11 84
19 111 41 38 78 42 125 13z m397 -392 c21 -25 26 -40 24 -75 l-3 -44 269 -269
c268 -268 269 -269 250 -290 l-19 -21 -270 270 c-270 270 -271 271 -307 265
-73 -12 -129 46 -115 120 9 48 47 76 101 76 36 0 48 -5 70 -32z m1479 -387
c14 -15 15 -21 4 -27 -7 -4 -10 -3 -5 1 4 5 0 17 -10 27 -9 10 -14 18 -11 18
3 0 13 -9 22 -19z m37 -48 c13 -16 12 -17 -3 -4 -10 7 -18 15 -18 17 0 8 8 3
21 -13z m-401 -183 c8 -5 11 -12 8 -16 -4 -3 -14 1 -23 10 -18 17 -9 21 15 6z"/>
<path d="M1650 3140 c-25 -25 -25 -32 -2 -60 25 -31 69 -21 78 17 5 20 2 31
-16 45 -28 23 -35 23 -60 -2z"/>
<path d="M2767 2134 c-6 -6 30 -71 44 -80 5 -3 1 9 -10 27 -11 18 -18 36 -15
40 5 9 -11 21 -19 13z"/>
<path d="M1320 3514 c-10 -11 -11 -23 -4 -42 12 -35 53 -41 79 -12 15 17 16
24 7 45 -14 29 -61 35 -82 9z"/>
<path d="M1262 3028 c-15 -15 -15 -51 0 -66 28 -28 78 -7 78 33 0 27 -18 45
-45 45 -12 0 -26 -5 -33 -12z"/>
<path d="M1314 2510 c-30 -12 -37 -39 -19 -66 17 -27 56 -32 75 -10 29 36 -13
93 -56 76z"/>
<path d="M1636 2651 c-21 -23 -14 -56 15 -72 43 -23 92 44 57 79 -18 18 -53
14 -72 -7z"/>
</g>
</svg>
